<?xml version="1.0" encoding="UTF-8"?>
<svg width="34px" height="30px" viewBox="0 0 34 30" version="1.1" xmlns="http://www.w3.org/2000/svg" xmlns:xlink="http://www.w3.org/1999/xlink">
    <!-- Generator: Sketch 54.1 (76490) - https://sketchapp.com -->
    <title>bars</title>
    <desc>Created with Sketch.</desc>
    <g id="Page-1" stroke="none" stroke-width="1" fill="none" fill-rule="evenodd">
        <g id="Mobile" transform="translate(-274.000000, -14.000000)" fill="#000000" fill-rule="nonzero">
            <g id="nav">
                <g id="bars" transform="translate(274.000000, 14.000000)">
                    <path d="M1.21428571,5.51020408 L32.7857143,5.51020408 C33.4563795,5.51020408 34,4.96201531 34,4.28571429 L34,1.2244898 C34,0.548188776 33.4563795,0 32.7857143,0 L1.21428571,0 C0.543620536,0 0,0.548188776 0,1.2244898 L0,4.28571429 C0,4.96201531 0.543620536,5.51020408 1.21428571,5.51020408 Z M1.21428571,17.755102 L32.7857143,17.755102 C33.4563795,17.755102 34,17.2069133 34,16.5306122 L34,13.4693878 C34,12.7930867 33.4563795,12.244898 32.7857143,12.244898 L1.21428571,12.244898 C0.543620536,12.244898 0,12.7930867 0,13.4693878 L0,16.5306122 C0,17.2069133 0.543620536,17.755102 1.21428571,17.755102 Z M1.21428571,30 L32.7857143,30 C33.4563795,30 34,29.4518112 34,28.7755102 L34,25.7142857 C34,25.0379847 33.4563795,24.4897959 32.7857143,24.4897959 L1.21428571,24.4897959 C0.543620536,24.4897959 0,25.0379847 0,25.7142857 L0,28.7755102 C0,29.4518112 0.543620536,30 1.21428571,30 Z" id="Shape"></path>
                </g>
            </g>
        </g>
    </g>
</svg>