<?xml version="1.0" encoding="UTF-8"?>
<svg width="51px" height="47px" viewBox="0 0 51 47" version="1.1" xmlns="http://www.w3.org/2000/svg" xmlns:xlink="http://www.w3.org/1999/xlink">
    <!-- Generator: Sketch 54.1 (76490) - https://sketchapp.com -->
    <title>binoculars</title>
    <desc>Created with Sketch.</desc>
    <g id="Page-1" stroke="none" stroke-width="1" fill="none" fill-rule="evenodd">
        <g id="Mobile" transform="translate(-135.000000, -881.000000)" fill="#D44B84" fill-rule="nonzero">
            <g id="ingredients" transform="translate(132.000000, 537.000000)">
                <g id="binoculars" transform="translate(3.000000, 344.000000)">
                    <path d="M50.16,33.05 L50.18,33.07 C50.18,33.07 50.17,33.04 50.15,33 C49.88,31.67 49.38,30.43 48.7,29.31 C46.53,23.99 42.29,14.32 38.14,9.1 C35.9,2.88 34.26,0.53 31.2,0.53 C28.14,0.53 27.22,2.77 27.22,2.77 L27.12,11.64 L29.77,11.64 L29.77,4.3 C29.77,4.3 32.32,0.63 34.67,5.93 C37.02,11.23 39.87,15.42 39.87,15.42 L44.23,25.07 C42.61,24.21 40.76,23.71 38.8,23.71 C34.85,23.71 31.37,25.69 29.28,28.7 L29.28,16.8 C30.86,17.49 32.23,18.57 33.24,19.95 L35.61,19.95 C33.63,16.41 29.85,14.01 25.5,14.01 C21.15,14.01 17.37,16.41 15.39,19.95 L17.76,19.95 C18.68,18.69 19.91,17.67 21.32,16.98 L21.32,28.8 C19.24,25.73 15.72,23.71 11.73,23.71 C9.7,23.71 7.8,24.23 6.14,25.15 L10.64,15.19 C10.64,15.19 13.5,11.01 15.84,5.7 C18.19,0.4 20.74,4.07 20.74,4.07 L20.74,11.41 L23.39,11.41 L23.29,2.54 C23.29,2.54 22.37,0.3 19.31,0.3 C16.25,0.3 14.62,2.65 12.37,8.87 C7.99,14.38 3.51,24.84 1.47,29.92 C1.09,30.64 0.8,31.4 0.58,32.19 C0.42,32.6 0.34,32.83 0.34,32.83 L0.45,32.7 C0.26,33.53 0.15,34.39 0.15,35.28 C0.15,41.67 5.33,46.85 11.72,46.85 C18.11,46.85 23.29,41.67 23.29,35.28 L23.29,16.28 C23.99,16.11 24.73,16.02 25.48,16.02 C26.07,16.02 26.64,16.09 27.2,16.19 L27.2,34.82 L27.22,34.82 C27.21,34.98 27.2,35.13 27.2,35.29 C27.2,41.68 32.38,46.86 38.77,46.86 C45.16,46.86 50.34,41.68 50.34,35.29 C50.38,34.53 50.3,33.78 50.16,33.05 Z M11.75,44.88 C6.46,44.88 2.17,40.59 2.17,35.3 C2.17,30.01 6.46,25.72 11.75,25.72 C17.04,25.72 21.33,30.01 21.33,35.3 C21.33,40.59 17.04,44.88 11.75,44.88 Z M38.81,44.88 C33.52,44.88 29.23,40.59 29.23,35.3 C29.23,35.14 29.25,34.99 29.25,34.83 L29.29,34.83 L29.29,34.24 C29.82,29.45 33.87,25.72 38.81,25.72 C44.1,25.72 48.39,30.01 48.39,35.3 C48.39,40.59 44.1,44.88 38.81,44.88 Z" id="Shape"></path>
                    <path d="M30.73,35.92 L32.77,35.92 C33.61,32.34 36.45,29.53 40.05,28.75 L40.05,26.72 C35.35,27.57 31.63,31.24 30.73,35.92 Z" id="Path"></path>
                    <path d="M3.52,36.39 L5.56,36.39 C6.4,32.81 9.24,30 12.84,29.22 L12.84,27.2 C8.14,28.03 4.42,31.71 3.52,36.39 Z" id="Path"></path>
                </g>
            </g>
        </g>
    </g>
</svg>