<?xml version="1.0" encoding="UTF-8"?>
<svg width="51px" height="44px" viewBox="0 0 51 44" version="1.1" xmlns="http://www.w3.org/2000/svg" xmlns:xlink="http://www.w3.org/1999/xlink">
    <!-- Generator: Sketch 54.1 (76490) - https://sketchapp.com -->
    <title>cards</title>
    <desc>Created with Sketch.</desc>
    <g id="Page-1" stroke="none" stroke-width="1" fill="none" fill-rule="evenodd">
        <g id="Mobile" transform="translate(-133.000000, -1059.000000)" fill="#DC3828" fill-rule="nonzero">
            <g id="ingredients" transform="translate(132.000000, 537.000000)">
                <g id="cards" transform="translate(1.000000, 522.000000)">
                    <path d="M7.31,4.23 C6.48,4.23 5.81,4.9 5.81,5.73 C5.81,6.56 6.48,7.23 7.31,7.23 C8.14,7.23 8.81,6.56 8.81,5.73 C8.81,4.9 8.14,4.23 7.31,4.23 Z" id="Path"></path>
                    <circle id="Oval" cx="11.32" cy="5.73" r="1.5"></circle>
                    <circle id="Oval" cx="15.48" cy="5.73" r="1.5"></circle>
                    <path d="M45.23,9.18 L43.94,9.18 L43.94,4.93 C43.94,2.23 41.75,0.04 39.05,0.04 L4.9,0.04 C2.2,0.04 0.01,2.23 0.01,4.93 L0.01,29.08 C0.01,31.78 2.2,33.97 4.9,33.97 L6.19,33.97 L6.19,38.22 C6.19,40.92 8.38,43.11 11.08,43.11 L45.24,43.11 C47.94,43.11 50.13,40.92 50.13,38.22 L50.13,14.07 C50.12,11.36 47.93,9.18 45.23,9.18 Z M1.62,5.67 C1.62,3.31 3.53,1.4 5.89,1.4 L38.14,1.4 C40.5,1.4 42.41,3.31 42.41,5.67 L42.41,9.14 L1.62,9.14 L1.62,5.67 L1.62,5.67 Z M1.62,28.27 L1.62,11.12 L42.41,11.17 L42.41,28.27 C42.41,30.63 40.5,32.54 38.14,32.54 L5.89,32.54 C3.53,32.54 1.62,30.63 1.62,28.27 Z M48.58,37.41 C48.58,39.77 46.67,41.68 44.31,41.68 L12.06,41.68 C9.7,41.68 7.79,39.77 7.79,37.41 L7.79,33.97 L39.05,33.97 C41.75,33.97 43.94,31.78 43.94,29.08 L43.94,20.25 L48.57,20.25 L48.57,37.41 L48.58,37.41 Z M48.58,18.28 L43.95,18.28 L43.95,11.16 C44.32,11.11 46.45,10.92 47.69,12.22 C48.24,12.94 48.58,13.83 48.58,14.8 L48.58,18.28 Z" id="Shape"></path>
                </g>
            </g>
        </g>
    </g>
</svg>