<?xml version="1.0" encoding="UTF-8"?>
<svg width="39px" height="45px" viewBox="0 0 39 45" version="1.1" xmlns="http://www.w3.org/2000/svg" xmlns:xlink="http://www.w3.org/1999/xlink">
    <!-- Generator: Sketch 54.1 (76490) - https://sketchapp.com -->
    <title>clock</title>
    <desc>Created with Sketch.</desc>
    <g id="Page-1" stroke="none" stroke-width="1" fill="none" fill-rule="evenodd">
        <g id="Mobile" transform="translate(-139.000000, -714.000000)" fill="#00A2D4" fill-rule="nonzero">
            <g id="ingredients" transform="translate(132.000000, 537.000000)">
                <g id="clock" transform="translate(7.000000, 177.000000)">
                    <rect id="Rectangle" transform="translate(25.405288, 18.873037) rotate(-45.000000) translate(-25.405288, -18.873037) " x="22.2403184" y="17.8380469" width="6.3299393" height="2.06998015"></rect>
                    <rect id="Rectangle" transform="translate(7.725412, 36.992417) rotate(-45.000000) translate(-7.725412, -36.992417) " x="4.56044235" y="35.9574269" width="6.3299393" height="2.06998015"></rect>
                    <rect id="Rectangle" transform="translate(7.756817, 19.517496) rotate(-45.000000) translate(-7.756817, -19.517496) " x="6.72182693" y="16.3525264" width="2.06998015" height="6.3299393"></rect>
                    <rect id="Rectangle" transform="translate(25.436292, 37.088015) rotate(-45.000000) translate(-25.436292, -37.088015) " x="24.4013019" y="33.9230454" width="2.06998015" height="6.3299393"></rect>
                    <rect id="Rectangle" x="0.89" y="27.23" width="6.33" height="2.07"></rect>
                    <rect id="Rectangle" x="15.3" y="37.77" width="2.07" height="6.33"></rect>
                    <path d="M38.45,27.63 C38.45,21.98 36.31,16.83 32.79,12.95 L35.35,10.39 L36.76,11.8 L38,10.56 L36.59,9.15 L36.6,9.14 L35.14,7.68 L35.13,7.69 L33.73,6.29 L32.49,7.53 L33.89,8.93 L31.33,11.49 C27.63,8.11 22.75,5.99 17.39,5.8 L17.39,1.85 L19.38,1.85 L19.38,0.09 L17.39,0.09 L17.39,0.08 L15.32,0.08 L15.32,0.09 L13.34,0.09 L13.34,1.85 L15.32,1.85 L15.32,26.85 L15.31,26.85 L15.31,28.92 L38.34,28.92 L38.34,28.78 L38.43,28.78 C38.44,28.39 38.45,28.01 38.45,27.63 Z M17.39,8.25 C27.48,8.66 35.57,16.74 35.98,26.83 L17.39,26.83 L17.39,8.25 Z" id="Shape"></path>
                </g>
            </g>
        </g>
    </g>
</svg>