<?xml version="1.0" encoding="UTF-8"?>
<svg width="39px" height="51px" viewBox="0 0 39 51" version="1.1" xmlns="http://www.w3.org/2000/svg" xmlns:xlink="http://www.w3.org/1999/xlink">
    <!-- Generator: Sketch 54.1 (76490) - https://sketchapp.com -->
    <title>cup</title>
    <desc>Created with Sketch.</desc>
    <g id="Page-1" stroke="none" stroke-width="1" fill="none" fill-rule="evenodd">
        <g id="Mobile" transform="translate(-141.000000, -1228.000000)" fill="#F7911E" fill-rule="nonzero">
            <g id="ingredients" transform="translate(132.000000, 537.000000)">
                <path d="M39.95,715.66 C39.9,715.66 39.85,715.67 39.79,715.67 L39.79,711.94 L36.66,711.94 C38.03,709.72 40.86,705.29 40.86,705.29 C42.33,704.5 44.43,702.4 44.72,698.65 C43.59,690.65 37.57,691.45 37.57,691.45 C38.76,692.47 38.19,695.53 37.46,696.33 C32.87,700.64 36.72,703.7 36.72,703.7 C36.72,703.7 33.45,709.06 32.03,711.33 L32.03,691 L21.17,691 L21.17,711.94 L21.01,711.94 L15.14,703.28 L9,699.91 L9.31,707.33 L12.59,711.95 L10.47,711.95 L10.47,736.62 C10.47,739.44 12.76,741.73 15.58,741.73 L36.05,741.73 C38.11,741.73 39.78,740.06 39.78,738 L39.78,731.49 C39.83,731.49 39.88,731.5 39.94,731.5 C44.31,731.5 47.85,727.96 47.85,723.59 C47.85,719.22 44.32,715.66 39.95,715.66 Z M38.89,697.29 C38.89,697.29 40.88,695.36 40.08,693.77 C40.08,693.77 44.39,696.38 42.86,699.78 C41.33,703.18 40.08,703.24 39.17,702.84 C38.27,702.46 35.32,700.53 38.89,697.29 Z M38.21,704.61 L39.06,705.06 L34.49,711.93 L33.48,711.93 L38.21,704.61 Z M23.02,692.65 L30.21,692.65 L30.21,695.19 L25.22,695.19 L25.22,697.21 L30.21,697.21 L30.21,699.03 L27.1,699.03 L27.1,701.05 L30.21,701.05 L30.21,703.26 L24.99,703.26 L24.99,705.28 L30.21,705.28 L30.21,707.88 L26.95,707.88 L26.95,709.9 L30.21,709.9 L30.21,711.96 L23.02,711.96 L23.02,692.65 Z M10.44,702.36 L13.46,704.07 L10.67,706.12 L10.44,702.36 Z M11.46,707.09 L14.19,705.1 L18.96,711.94 L14.96,711.94 L11.46,707.09 Z M37.94,737.2 C37.94,738.67 36.75,739.86 35.28,739.86 L16.89,739.86 C14.66,739.86 12.85,738.05 12.85,735.82 L12.85,714.31 C12.85,714.26 12.89,714.23 12.93,714.23 L37.85,714.23 C37.9,714.23 37.93,714.27 37.93,714.31 L37.93,737.2 L37.94,737.2 Z M39.95,729.33 C39.9,729.33 39.85,729.32 39.79,729.32 L39.79,717.82 C39.84,717.82 39.89,717.81 39.95,717.81 C43.13,717.81 45.71,720.39 45.71,723.57 C45.71,726.75 43.13,729.33 39.95,729.33 Z" id="cup"></path>
            </g>
        </g>
    </g>
</svg>