<?xml version="1.0" encoding="UTF-8"?>
<svg width="51px" height="44px" viewBox="0 0 51 44" version="1.1" xmlns="http://www.w3.org/2000/svg" xmlns:xlink="http://www.w3.org/1999/xlink">
    <!-- Generator: Sketch 54.1 (76490) - https://sketchapp.com -->
    <title>pig</title>
    <desc>Created with Sketch.</desc>
    <g id="Page-1" stroke="none" stroke-width="1" fill="none" fill-rule="evenodd">
        <g id="Mobile" transform="translate(-132.000000, -537.000000)" fill="#A6CF46" fill-rule="nonzero">
            <g id="ingredients" transform="translate(132.000000, 537.000000)">
                <g id="pig">
                    <path d="M13.44,16.08 C12.25,16.08 11.28,17.05 11.28,18.24 C11.28,19.43 12.25,20.4 13.44,20.4 C14.63,20.4 15.6,19.43 15.6,18.24 C15.6,17.05 14.63,16.08 13.44,16.08 Z" id="Path"></path>
                    <path d="M48.79,16.39 C48.79,16.39 48.66,19.17 46.88,19.85 C46.22,10.61 37.14,3.29 26,3.29 C24.35,3.29 22.75,3.47 21.21,3.77 C20.2,2.5 15.89,-2.23 9.91,1.59 L13.68,6.67 C9.29,9.37 6.19,13.48 5.32,18.21 L0.97,18.21 L0.97,28.06 L6.85,28.06 C8.85,31.85 12.39,34.94 16.79,36.76 L16.79,43.12 L18.65,43.12 L18.65,37.44 C20.93,38.16 23.4,38.56 25.99,38.56 C28.77,38.56 31.42,38.1 33.84,37.28 L33.84,43.18 L35.7,43.18 L35.7,36.55 C41.95,33.79 46.33,28.44 46.86,22.2 C47.52,21.97 50.9,20.62 50.9,16.4 L48.79,16.4 L48.79,16.39 Z M25.95,36.56 C17.75,36.56 10.8,32.23 8.18,26.18 L6.02,26.18 C6.02,26.18 6.02,26.18 6.02,26.19 L2.59,26.19 L2.59,19.98 L5.12,19.98 C5.12,19.98 5.12,19.98 5.12,19.99 L7.11,19.99 C7.49,14.55 11.22,9.87 16.61,7.32 L12.69,2.09 C12.69,2.09 16.18,1.42 19.05,4.29 L20.37,5.95 C22.13,5.5 24,5.25 25.95,5.25 C36.38,5.25 44.84,12.26 44.84,20.9 C44.84,29.55 36.38,36.56 25.95,36.56 Z" id="Shape"></path>
                    <path d="M23.91,8.69 L23.86,8.97 L23.86,10.66 C25.24,10.65 26.64,10.75 28.06,11 C30.83,11.5 33.37,12.49 35.57,13.82 L36.35,11.99 C34.01,10.63 31.37,9.6 28.47,9.07 C26.93,8.79 25.4,8.68 23.91,8.69 Z" id="Path"></path>
                </g>
            </g>
        </g>
    </g>
</svg>