<?xml version="1.0" encoding="UTF-8"?>
<svg width="51px" height="51px" viewBox="0 0 51 51" version="1.1" xmlns="http://www.w3.org/2000/svg" xmlns:xlink="http://www.w3.org/1999/xlink">
    <!-- Generator: Sketch 54.1 (76490) - https://sketchapp.com -->
    <title>triangle</title>
    <desc>Created with Sketch.</desc>
    <g id="Page-1" stroke="none" stroke-width="1" fill="none" fill-rule="evenodd">
        <g id="Mobile" transform="translate(-133.000000, -1425.000000)" fill="#EBC431" fill-rule="nonzero">
            <g id="ingredients" transform="translate(132.000000, 537.000000)">
                <g id="triangle" transform="translate(1.000000, 888.000000)">
                    <path d="M9.56,20.19 L9.56,20.13 L7.73,20.13 L7.73,42.3 L7.68,42.3 L7.68,44.13 L31.63,44.13 L31.63,42.3 L31.6,42.3 L31.63,42.27 L9.56,20.19 Z M9.56,22.78 L29.08,42.3 L9.56,42.3 L9.56,22.78 Z" id="Shape"></path>
                    <path d="M2.76,0.15 L4.67,2.13 L2.76,0.22 L2.76,0.15 L0.6,0.15 L0.6,47.92 L0.6,49.72 L0.6,50.08 L50.84,50.08 L50.84,47.92 L2.76,0.15 Z M2.76,47.92 L2.76,3.28 L8.73,9.25 L6.54,11.44 L8.22,13.12 L10.41,10.93 L14.11,14.63 L12.1,16.64 L13.78,18.32 L15.79,16.31 L19.23,19.75 L17.22,21.76 L18.9,23.44 L20.91,21.43 L24.23,24.75 L22.3,26.68 L23.98,28.36 L25.91,26.43 L29.59,30.11 L27.58,32.12 L29.26,33.8 L31.27,31.79 L34.79,35.31 L32.54,37.56 L34.22,39.24 L36.47,36.99 L40.05,40.57 L37.9,42.72 L39.58,44.4 L41.73,42.25 L47.37,47.89 L2.76,47.89 L2.76,47.92 Z" id="Shape"></path>
                </g>
            </g>
        </g>
    </g>
</svg>